<?xml version="1.0" encoding="UTF-8" standalone="no"?>
<svg
   xmlns:dc="http://purl.org/dc/elements/1.1/"
   xmlns:cc="http://creativecommons.org/ns#"
   xmlns:rdf="http://www.w3.org/1999/02/22-rdf-syntax-ns#"
   xmlns:svg="http://www.w3.org/2000/svg"
   xmlns="http://www.w3.org/2000/svg"
   viewBox="0 0 1195.2 398.49332"
   height="398.49332"
   width="1195.2"
   xml:space="preserve"
   id="svg2"
   version="1.1"><metadata
     id="metadata8"><rdf:RDF><cc:Work
         rdf:about=""><dc:format>image/svg+xml</dc:format><dc:type
           rdf:resource="http://purl.org/dc/dcmitype/StillImage" /></cc:Work></rdf:RDF></metadata><defs
     id="defs6" /><g
     transform="matrix(1.3333333,0,0,-1.3333333,0,398.49333)"
     id="g10"><g
       transform="scale(0.1)"
       id="g12"><path
         id="path14"
         style="fill:#231f20;fill-opacity:1;fill-rule:nonzero;stroke:none"
         d="m 3167.41,2484.5 h 405.34 V 565.059 H 3167.41 V 2484.5" /><path
         id="path16"
         style="fill:#231f20;fill-opacity:1;fill-rule:nonzero;stroke:none"
         d="m 6242.67,1739.85 h 405.35 v -169.47 h 4.58 c 0,0 58.24,203.82 289.53,203.82 151.15,0 286.48,-93.28 286.48,-93.28 L 7043.94,1367.1 c 0,0 -35.39,53.89 -155.47,54.43 -210.67,0.96 -240.45,-208.4 -240.45,-238.16 V 565.059 H 6242.67 V 1739.85" /><path
         id="path18"
         style="fill:#231f20;fill-opacity:1;fill-rule:nonzero;stroke:none"
         d="m 2543.28,1729.85 v -629.41 c 0,-112.952 -91.56,-204.518 -204.51,-204.518 v 0 c -112.96,0 -204.52,91.566 -204.52,204.518 v 629.41 h -407.74 v -594.68 c 0,-339.35 275.11,-614.459 614.46,-614.459 h 4.35 c 339.36,0 614.45,275.109 614.45,614.459 v 594.68 h -416.49" /><path
         id="path20"
         style="fill:#231f20;fill-opacity:1;fill-rule:nonzero;stroke:none"
         d="m 5640.14,1729.85 v -629.41 c 0,-112.952 -91.56,-204.518 -204.51,-204.518 v 0 c -112.96,0 -204.52,91.566 -204.52,204.518 v 629.41 h -407.73 v -619.22 c 0,-325.798 264.12,-589.919 589.92,-589.919 h 53.43 c 325.8,0 589.91,264.121 589.91,589.919 v 619.22 h -416.5" /><path
         id="path22"
         style="fill:#231f20;fill-opacity:1;fill-rule:nonzero;stroke:none"
         d="m 3906.29,1411.05 h -203.56 v 320.82 h 203.56 v 560.59 h 396.09 v -560.59 h 302.82 v -320.82 h -302.82 v -328.87 c 0,-62.37 12.38,-110.5 37.14,-144.41 24.75,-33.95 63.69,-50.891 116.89,-50.891 40.33,0 75.17,6.883 104.53,20.633 29.32,13.758 56.82,29.777 82.52,48.129 l 119.55,-262.059 c -124.73,-99.023 -220.42,-128.523 -367.09,-128.523 -91.73,0 -168.75,13.32 -231.07,39.882 -62.35,26.559 -112.77,63.258 -151.29,110.028 -38.49,46.761 -66.01,103.14 -82.51,169.16 -16.51,66.019 -24.76,139.351 -24.76,220.061 v 306.86" /><path
         id="path24"
         style="fill:#231f20;fill-opacity:1;fill-rule:nonzero;stroke:none"
         d="m 1598.95,713.27 c -47.75,-52.688 -110.69,-97.938 -188.85,-135.778 -78.19,-37.832 -170.75,-56.781 -277.7,-56.781 -93.82,0 -178.986,15.238 -255.509,45.68 C 800.367,596.82 734.957,639.602 680.633,694.75 626.336,749.871 583.941,815.281 553.504,891 c -30.461,75.68 -45.664,158.79 -45.664,249.33 0,85.55 15.625,165.77 46.914,240.68 31.23,74.87 74.434,140.29 129.59,196.25 55.117,55.93 120.957,99.98 197.48,132.08 76.531,32.08 160.036,48.14 250.576,48.14 105.29,0 196.62,-17.3 273.99,-51.86 77.34,-34.56 142.33,-80.64 195.03,-138.24 l -214.77,-232.03 c -26.34,29.62 -58.43,55.93 -96.27,78.99 -37.88,23.02 -88.07,34.57 -150.59,34.57 -42.81,0 -81.07,-8.65 -114.78,-25.93 -33.752,-17.28 -62.561,-39.92 -86.401,-67.88 -23.875,-28.01 -41.972,-60.48 -54.316,-97.51 -12.344,-37.03 -18.508,-76.15 -18.508,-117.26 0,-37.88 6.164,-75.3 18.508,-112.32 12.344,-37.018 30.441,-69.971 54.316,-98.74 23.84,-28.821 52.649,-52.278 86.401,-70.36 33.71,-18.129 71.97,-27.148 114.78,-27.148 60.86,0 111.9,11.918 153.06,35.789 41.12,23.84 74.05,49.75 98.75,77.75 L 1598.95,713.27" /><path
         id="path26"
         style="fill:#231f20;fill-opacity:1;fill-rule:nonzero;stroke:none"
         d="m 8064.76,1307.41 c -18.32,123.66 -103.05,190.08 -222.14,190.08 -139.69,0 -217.54,-82.44 -224.42,-190.08 z m -458,-224.42 c 0,-180.908 151.13,-242.748 254.18,-242.748 130.54,0 187.79,25.199 286.26,130.528 L 8440.33,824.211 C 8307.5,602.082 8092.24,517.352 7831.17,517.352 c -354.95,0 -645.78,279.378 -645.78,620.598 0,343.5 290.83,622.89 645.78,622.89 357.25,0 629.77,-210.68 629.77,-622.89 0,-16.03 0,-41.22 -2.29,-54.96 h -851.89" /></g></g></svg>